<svg width="203" height="27" viewBox="0 0 203 27" fill="none" xmlns="http://www.w3.org/2000/svg">
<path d="M133.955 24.9251C149.33 21.0519 165.217 19.5266 181.062 20.4026C188.62 20.7118 196.056 22.3859 203 25.3415L202.401 24.9945C199.961 23.455 197.373 22.1571 194.673 21.1197C181.578 16.6203 166.663 15.082 147.696 16.2502C138.019 16.8517 129.939 16.4122 121.859 12.3639C117.485 10.2346 113.001 8.33501 108.423 6.67317C106.556 5.95605 104.689 5.2505 102.833 4.51024C86.8138 -1.89759 70.5714 -1.4812 53.2251 5.78256C44.5931 9.3033 35.675 12.1007 26.5656 14.1451C19.4485 15.7991 8.94915 17.164 0 10.0506V10.2588C0 10.8487 -1.75004e-07 11.4154 0.187908 11.6583C6.17749 18.205 23.6765 31.6915 57.042 15.9148C55.5857 13.6015 54.928 11.9475 55.4213 10.5248C55.9145 9.10214 57.7701 8.08429 60.577 7.05487C68.3522 4.182 76.732 3.26368 84.9582 4.38301C98.2997 6.27991 110.396 11.6121 123.714 17.858C123.937 17.9621 124.172 18.043 124.395 18.1356L126.404 18.8874L124.607 19.8474C119.651 22.5308 114.965 25.0754 109.398 24.393C103.831 23.7106 98.241 22.9472 92.8034 22.1838L86.5789 21.3279C88.411 21.8484 90.2314 22.3689 92.0517 22.9356C107.237 27.5969 120.555 28.2331 133.955 24.9251Z" fill="#DF0000"/>
</svg>
