<svg width="120" height="120" viewBox="0 0 120 120" fill="none" xmlns="http://www.w3.org/2000/svg">
<path d="M118.687 60.0002C118.687 92.4377 92.4375 118.688 60 118.688C27.5625 118.688 1.3125 92.4377 1.3125 60.0002C1.3125 27.5627 27.5625 1.31274 60 1.31274C92.4375 1.31274 118.687 27.5627 118.687 60.0002ZM60 4.87524C29.4375 4.87524 4.875 29.4377 4.875 60.0002C4.875 90.5627 29.625 115.125 60 115.125C90.5625 115.125 115.125 90.3752 115.125 60.0002C115.125 29.4377 90.5625 4.87524 60 4.87524Z" fill="url(#paint0_linear)"/>
<path d="M60 4.875C29.4375 4.875 4.875 29.4375 4.875 60C4.875 90.5625 29.625 115.125 60 115.125C90.5625 115.125 115.125 90.375 115.125 60C115.125 29.4375 90.5625 4.875 60 4.875ZM60 111.563C31.5 111.563 8.4375 88.5 8.4375 60C8.4375 31.5 31.5 8.4375 60 8.4375C88.5 8.4375 111.563 31.5 111.563 60C111.563 88.5 88.5 111.563 60 111.563Z" fill="url(#paint1_linear)"/>
<path opacity="0.4" d="M60 118.687C92.4375 118.687 118.687 92.4375 118.687 60C118.687 27.5625 92.4375 1.3125 60 1.3125C27.5625 1.3125 1.3125 27.5625 1.3125 60C1.3125 92.4375 27.5625 118.687 60 118.687ZM60 0C93 0 120 27 120 60C120 93 93 120 60 120C27 120 0 93 0 60C0 27 27 0 60 0Z" fill="url(#paint2_linear)"/>
<path d="M4.125 60.1877C4.125 29.4377 29.0625 4.12524 60 4.12524C90.9375 4.12524 115.875 29.2502 115.875 60.1877C115.875 90.9377 90.9375 115.875 60 115.875C29.0625 115.875 4.125 90.9377 4.125 60.1877ZM21.5625 21.5627C11.625 31.5002 5.4375 45.1877 5.4375 60.1877C5.4375 75.1877 11.625 88.8752 21.375 98.6252C31.3125 108.375 45 114.563 60 114.563C75 114.563 88.6875 108.563 98.4375 98.6252C108.375 88.8752 114.375 75.1877 114.375 60.1877C114.375 45.1877 108.188 31.5002 98.4375 21.5627C88.6875 11.6252 75 5.43774 60 5.43774C45 5.43774 31.3125 11.6252 21.5625 21.5627Z" fill="white"/>
<path opacity="0.4" d="M60 111.75C46.125 111.75 33.1875 106.313 23.4375 96.5625C13.6875 86.8125 8.25 73.875 8.25 60C8.25 46.125 13.6875 33.1875 23.4375 23.4375C33.1875 13.6875 46.125 8.25 60 8.25C73.875 8.25 86.8125 13.6875 96.5625 23.4375C106.313 33.1875 111.75 46.125 111.75 60C111.75 73.875 106.313 86.8125 96.5625 96.5625C86.8125 106.313 73.875 111.75 60 111.75ZM60 110.25C73.3125 110.25 86.0625 105 95.4375 95.625C105 86.0625 110.063 73.5 110.063 60.1875C110.063 46.875 104.813 34.125 95.4375 24.75C85.875 15.1875 73.3125 10.125 60 10.125C46.6875 10.125 33.9375 15.375 24.5625 24.75C15 33.9375 9.75 46.6875 9.75 60C9.75 73.3125 15 86.0625 24.375 95.4375C33.9375 105 46.6875 110.25 60 110.25Z" fill="url(#paint3_linear)"/>
<path d="M105.562 84.375C104.625 83.625 68.4375 54.9375 68.4375 54.9375L60 6.75C59.4375 6.9375 58.6875 7.5 58.3125 8.25L52.3125 55.125L15 83.8125C15 83.8125 14.25 84.75 13.875 85.3125C13.6875 85.6875 13.6875 86.25 13.6875 86.8125L59.8125 67.875L105.937 86.8125C106.312 85.875 105.937 84.9375 105.562 84.375Z" fill="white"/>
<path d="M60.375 61.5L60 70.125L102.375 87.1875C103.875 87.9375 105 87.5625 106.125 86.8125L60.9375 61.3125C60.75 61.125 60.375 61.3125 60.375 61.5Z" fill="#565F64"/>
<path d="M60.375 61.5C60.375 61.5 62.8125 65.8125 65.625 68.8125C69.5625 73.125 74.8125 76.125 74.8125 76.125L102.375 87.1875C103.875 87.9375 105 87.5625 106.125 86.8125L60.9375 61.3125C60.75 61.125 60.375 61.3125 60.375 61.5Z" fill="url(#paint4_linear)"/>
<path d="M105.937 85.125C105.937 84.9375 105.75 84.75 105.562 84.375L66.9375 56.0625L61.6875 59.4375C61.6875 59.4375 62.0625 59.625 62.25 59.4375C62.8125 59.25 63.9375 59.0625 65.0625 59.4375C66 59.8125 105.937 85.3125 105.937 85.3125C105.937 85.3125 105.937 85.3125 105.937 85.125Z" fill="#A4AAAE" fill-opacity="0.6"/>
<path d="M104.625 83.4373L68.625 54.9373L66.9375 56.0623L105.562 84.5623C105.375 84.1873 105 83.8123 104.625 83.4373Z" fill="#333E46"/>
<path d="M60.9375 58.6877C60.75 58.8752 60.75 58.8752 60.75 58.8752C60.75 58.8752 60.75 59.2502 61.125 59.0627C61.3125 58.8752 66.75 56.0627 68.625 54.9377L62.0625 9.93774C61.875 8.25024 61.125 7.50024 59.8125 6.93774L60.5625 59.0627L60.9375 58.6877Z" fill="#565F64"/>
<path d="M57.75 9.93774V12.3752L53.625 53.8127C53.625 54.3752 53.8125 54.9377 54.375 55.3127L56.8125 57.1877L58.5 11.4377L58.6875 7.87524C58.125 8.25024 57.9375 9.00024 57.75 9.93774Z" fill="#A4AAAE" fill-opacity="0.6"/>
<path d="M55.5 57.9375L53.25 56.0625L15.1875 83.625C15.1875 83.625 14.0625 84.375 13.875 85.125L15.1875 84.375L55.125 59.25C55.875 58.875 56.0625 58.5 55.5 57.9375Z" fill="#A4AAAE" fill-opacity="0.6"/>
<path d="M59.4375 61.5C59.4375 61.3125 59.25 61.125 59.0625 61.3125L13.6875 87C14.8125 87.75 15.9375 87.9375 17.4375 87.375L59.8125 70.3125L59.4375 61.5Z" fill="#565F64"/>
<path d="M60.75 58.875L60.9375 58.6875C60.75 58.875 60.75 58.875 60.75 58.875C60.75 58.875 60.75 59.0625 60.9375 59.0625H61.125C61.3125 58.875 66.75 56.0625 68.625 54.9375L67.875 49.5L62.0625 9.9375C62.0625 9.1875 61.875 8.625 61.5 8.25C61.5 8.25 64.3125 46.125 64.3125 50.25C64.3125 55.6875 60.75 58.875 60.75 58.875Z" fill="url(#paint5_linear)"/>
<path d="M59.4375 61.5C59.4375 61.3125 59.25 61.125 59.0625 61.3125L13.6875 87C14.8125 87.75 15.9375 87.9375 17.4375 87.375L59.8125 70.3125L59.4375 61.5Z" fill="url(#paint6_linear)" fill-opacity="0.8"/>
<path opacity="0.8" d="M17.4375 87.1875L59.8125 70.125L59.4375 61.875C58.6875 64.125 57.375 66.5625 53.8125 68.4375C51.1875 69.9375 26.0625 82.3125 17.0625 86.625C16.5 87 15.75 87.1875 15.375 87.375C16.125 87.75 16.6875 87.5625 17.4375 87.1875Z" fill="url(#paint7_linear)"/>
<path d="M60.9375 58.6877C60.75 58.8752 60.75 58.8752 60.75 58.8752C60.75 58.8752 60.75 59.2502 61.125 59.0627C61.3125 58.8752 66.75 56.0627 68.625 54.9377L62.0625 9.93774C61.875 8.25024 61.125 7.50024 59.8125 6.93774L60.5625 59.0627L60.9375 58.6877Z" fill="url(#paint8_linear)"/>
<path d="M60.9375 58.6877C60.75 58.8752 60.75 58.8752 60.75 58.8752C60.75 58.8752 60.75 59.2502 61.125 59.0627C61.3125 58.8752 66.75 56.0627 68.625 54.9377L62.0625 9.93774C61.875 8.25024 61.125 7.50024 59.8125 6.93774L60.5625 59.0627L60.9375 58.6877Z" fill="url(#paint9_linear)"/>
<path d="M9.5625 83.25C8.25 80.25 0.750001 65.625 9 37.5H5.8125C4.125 43.125 2.8125 46.5 2.0625 51.5625C2.0625 51.5625 1.6875 53.4375 1.5 55.5C1.3125 57.5625 1.3125 58.6875 1.3125 60C1.3125 71.25 4.125 77.8125 4.125 77.8125C7.125 87.1875 12.375 95.625 19.5 102C25.6875 107.438 35.25 111.562 43.125 113.062C41.8125 112.875 19.3125 103.313 9.5625 83.25Z" fill="url(#paint10_linear)"/>
<path d="M60.75 61.125H59.0625C59.25 61.125 59.4375 61.125 59.4375 61.3125L59.8125 69.9375H60L60.375 61.3125C60.375 61.125 60.5625 60.9375 60.75 61.125V61.125Z" fill="url(#paint11_linear)"/>
<path d="M78.75 4.31226C98.4375 11.8123 117 32.4373 117 58.4998C117 89.9998 91.875 115.687 60 115.687V118.687C91.875 118.687 118.687 92.4373 118.687 59.9998C118.687 34.1248 102.188 12.3748 78.75 4.31226Z" fill="url(#paint12_linear)"/>
<path d="M110.25 37.875C97.125 7.6875 67.5 6 65.8125 5.8125C65.8125 5.8125 65.8125 5.8125 65.625 5.8125C88.3125 9.9375 102.75 24.75 107.813 40.3125V40.5C110.063 46.5 111.188 52.875 111.375 59.8125C111.563 66.375 110.063 73.6875 107.25 80.4375C107.063 81.375 106.875 82.5 106.688 82.5H109.688C118.688 65.625 114.75 48.5625 110.25 37.875Z" fill="url(#paint13_linear)"/>
<path d="M4.125 60.1877C4.125 29.4377 29.0625 4.12524 60 4.12524C90.9375 4.12524 115.875 29.2502 115.875 60.1877C115.875 90.9377 90.9375 115.875 60 115.875C29.0625 115.875 4.125 90.9377 4.125 60.1877ZM21.5625 21.5627C11.625 31.5002 5.4375 45.1877 5.4375 60.1877C5.4375 75.1877 11.625 88.8752 21.375 98.6252C31.3125 108.375 45 114.563 60 114.563C75 114.563 88.6875 108.563 98.4375 98.6252C108.375 88.8752 114.375 75.1877 114.375 60.1877C114.375 45.1877 108.188 31.5002 98.4375 21.5627C88.6875 11.6252 75 5.43774 60 5.43774C45 5.43774 31.3125 11.6252 21.5625 21.5627Z" fill="#FBFBFB"/>
<path d="M14.8125 84L53.0625 56.4375C55.125 57.5625 58.5 59.0625 58.875 59.0625C59.25 59.25 59.25 58.875 59.25 58.875L54.5625 54.9375C54 54.5625 53.8125 54 53.8125 53.4375L58.3125 8.25C58.125 8.4375 58.125 8.8125 57.9375 9C57.75 9.375 57.75 9.5625 57.75 9.9375L51.1875 55.125L15.1875 83.4375C15 83.625 14.8125 83.8125 14.8125 84Z" fill="#333F47"/>
<defs>
<linearGradient id="paint0_linear" x1="15" y1="22.3127" x2="105" y2="97.6877" gradientUnits="userSpaceOnUse">
<stop stop-color="white"/>
<stop offset="0.1" stop-color="#CDD0D0"/>
<stop offset="0.2" stop-color="#A5ACAF"/>
<stop offset="0.3" stop-color="#98A0A4"/>
<stop offset="0.4" stop-color="#828A8F"/>
<stop offset="0.5" stop-color="#667075"/>
<stop offset="0.6" stop-color="#535C63"/>
<stop offset="0.7" stop-color="#475158"/>
<stop offset="0.8" stop-color="#434D54"/>
<stop offset="1" stop-color="#475157"/>
</linearGradient>
<linearGradient id="paint1_linear" x1="17.8125" y1="24.5625" x2="102.188" y2="95.4375" gradientUnits="userSpaceOnUse">
<stop stop-color="#0B1F2A"/>
<stop offset="0.2" stop-color="#333F47"/>
<stop offset="0.5" stop-color="#81898D"/>
<stop offset="0.7" stop-color="#B3B8B8"/>
<stop offset="0.8" stop-color="#DEE0DD"/>
<stop offset="1" stop-color="#FBFBFB"/>
</linearGradient>
<linearGradient id="paint2_linear" x1="80.5736" y1="116.451" x2="39.5111" y2="3.57582" gradientUnits="userSpaceOnUse">
<stop stop-color="#E1E3E1"/>
<stop offset="0.1" stop-color="#C1C5C4"/>
<stop offset="0.3" stop-color="#9BA1A2"/>
<stop offset="0.5" stop-color="#7D8487"/>
<stop offset="0.7" stop-color="#687074" stop-opacity="0"/>
<stop offset="0.8" stop-color="#5B6469" stop-opacity="0"/>
<stop offset="1" stop-color="#576065" stop-opacity="0"/>
</linearGradient>
<linearGradient id="paint3_linear" x1="34.125" y1="15.1875" x2="85.875" y2="104.812" gradientUnits="userSpaceOnUse">
<stop stop-color="#E1E3E1"/>
<stop offset="0.1" stop-color="#C1C5C4"/>
<stop offset="0.3" stop-color="#9BA1A2"/>
<stop offset="0.5" stop-color="#7D8487"/>
<stop offset="0.7" stop-color="#687074" stop-opacity="0"/>
<stop offset="0.8" stop-color="#5B6469" stop-opacity="0"/>
<stop offset="1" stop-color="#576065" stop-opacity="0"/>
</linearGradient>
<linearGradient id="paint4_linear" x1="83.4375" y1="73.875" x2="80.25" y2="79.125" gradientUnits="userSpaceOnUse">
<stop stop-color="#27343C"/>
<stop offset="1" stop-color="#00111E" stop-opacity="0"/>
</linearGradient>
<linearGradient id="paint5_linear" x1="74.25" y1="54.5625" x2="69" y2="46.125" gradientUnits="userSpaceOnUse">
<stop offset="0.1" stop-color="#02131F"/>
<stop offset="0.9" stop-color="#02131F" stop-opacity="0"/>
</linearGradient>
<linearGradient id="paint6_linear" x1="60" y1="68.25" x2="52.125" y2="70.5" gradientUnits="userSpaceOnUse">
<stop offset="0.2" stop-color="#02131F"/>
<stop offset="0.9" stop-color="#02131F" stop-opacity="0"/>
</linearGradient>
<linearGradient id="paint7_linear" x1="39" y1="78.5625" x2="37.875" y2="75.75" gradientUnits="userSpaceOnUse">
<stop stop-color="#02131F"/>
<stop offset="0.1" stop-color="#02131F"/>
<stop offset="1" stop-color="#02131F" stop-opacity="0"/>
</linearGradient>
<linearGradient id="paint8_linear" x1="66.75" y1="32.2502" x2="60.375" y2="33.0002" gradientUnits="userSpaceOnUse">
<stop offset="0.3" stop-color="#02131F"/>
<stop offset="0.8" stop-color="#02131F" stop-opacity="0"/>
</linearGradient>
<linearGradient id="paint9_linear" x1="66.9375" y1="32.0627" x2="62.625" y2="32.6252" gradientUnits="userSpaceOnUse">
<stop offset="0.4" stop-color="#27343C"/>
<stop offset="1" stop-color="#3B474E" stop-opacity="0"/>
</linearGradient>
<linearGradient id="paint10_linear" x1="-0.75" y1="61.6875" x2="51.5625" y2="91.875" gradientUnits="userSpaceOnUse">
<stop stop-color="#25323B" stop-opacity="0"/>
<stop offset="0.1" stop-color="#27343C"/>
</linearGradient>
<linearGradient id="paint11_linear" x1="60" y1="70.125" x2="60" y2="61.125" gradientUnits="userSpaceOnUse">
<stop offset="0.3" stop-color="#A5ABAF"/>
<stop offset="1" stop-color="#A5ABAF" stop-opacity="0"/>
</linearGradient>
<linearGradient id="paint12_linear" x1="89.4375" y1="4.31226" x2="89.4375" y2="118.687" gradientUnits="userSpaceOnUse">
<stop stop-color="#6B7378"/>
<stop offset="0.2" stop-color="#333F47"/>
<stop offset="0.5" stop-color="#27343C"/>
<stop offset="0.8" stop-color="#333F47"/>
<stop offset="1" stop-color="#434D54"/>
</linearGradient>
<linearGradient id="paint13_linear" x1="107.438" y1="15.1875" x2="82.125" y2="52.3125" gradientUnits="userSpaceOnUse">
<stop offset="0.7" stop-color="#49545B"/>
<stop offset="0.8" stop-color="white" stop-opacity="0"/>
</linearGradient>
</defs>
</svg>
